<svg width="34" height="34" viewBox="0 0 34 34" fill="none" xmlns="http://www.w3.org/2000/svg">
<path d="M34 17C34 26.3888 26.3888 34 17 34C7.61116 34 0 26.3888 0 17C0 7.61116 7.61116 0 17 0C26.3888 0 34 7.61116 34 17Z" fill="url(#paint0_linear_15_58)"/>
<path d="M25.0024 9.5728C23.5381 8.91423 21.9527 8.43623 20.3012 8.16005C20.2868 8.1596 20.2724 8.16222 20.259 8.16773C20.2457 8.17323 20.2338 8.18149 20.2242 8.19192C20.026 8.54245 19.7948 8.9992 19.6407 9.34974C17.889 9.0948 16.1076 9.0948 14.3559 9.34974C14.2018 8.98858 13.9706 8.54245 13.7614 8.19192C13.7504 8.17067 13.7174 8.16005 13.6843 8.16005C12.0329 8.43623 10.4585 8.91423 8.98314 9.5728C8.97213 9.5728 8.96112 9.58343 8.95011 9.59405C5.95544 13.9173 5.1297 18.1237 5.53707 22.2876C5.53707 22.3088 5.54808 22.3301 5.5701 22.3407C7.55187 23.7428 9.45657 24.5926 11.3392 25.1556C11.3723 25.1662 11.4053 25.1556 11.4163 25.1344C11.8567 24.5501 12.2531 23.934 12.5944 23.2861C12.6164 23.2436 12.5944 23.2011 12.5503 23.1905C11.9228 22.9568 11.3282 22.6806 10.7447 22.362C10.7007 22.3407 10.7007 22.277 10.7337 22.2451C10.8548 22.1601 10.9759 22.0645 11.097 21.9796C11.119 21.9583 11.1521 21.9583 11.1741 21.9689C14.9615 23.6366 19.0461 23.6366 22.7895 21.9689C22.8115 21.9583 22.8445 21.9583 22.8665 21.9796C22.9876 22.0752 23.1087 22.1601 23.2299 22.2557C23.2739 22.2876 23.2739 22.3513 23.2188 22.3726C22.6463 22.7019 22.0408 22.9674 21.4132 23.2011C21.3692 23.2117 21.3582 23.2648 21.3692 23.2967C21.7215 23.9447 22.1179 24.5608 22.5472 25.145C22.5803 25.1556 22.6133 25.1662 22.6463 25.1556C24.54 24.5926 26.4447 23.7428 28.4265 22.3407C28.4485 22.3301 28.4595 22.3088 28.4595 22.2876C28.944 17.4757 27.6558 13.3012 25.0465 9.59405C25.0355 9.58343 25.0245 9.5728 25.0024 9.5728ZM13.1669 19.7489C12.0329 19.7489 11.086 18.7398 11.086 17.497C11.086 16.2542 12.0108 15.2451 13.1669 15.2451C14.3339 15.2451 15.2587 16.2648 15.2477 17.497C15.2477 18.7398 14.3229 19.7489 13.1669 19.7489ZM20.8407 19.7489C19.7067 19.7489 18.7599 18.7398 18.7599 17.497C18.7599 16.2542 19.6847 15.2451 20.8407 15.2451C22.0078 15.2451 22.9326 16.2648 22.9216 17.497C22.9216 18.7398 22.0078 19.7489 20.8407 19.7489Z" fill="white"/>
<defs>
<linearGradient id="paint0_linear_15_58" x1="17" y1="0" x2="17" y2="34" gradientUnits="userSpaceOnUse">
<stop stop-color="#7975B1"/>
<stop offset="1" stop-color="#4951B7"/>
</linearGradient>
</defs>
</svg>
