<svg width="34" height="34" viewBox="0 0 34 34" fill="none" xmlns="http://www.w3.org/2000/svg">
<path d="M0 4.76C0 2.13112 2.13112 0 4.76 0H29.24C31.8689 0 34 2.13112 34 4.76V29.24C34 31.8689 31.8689 34 29.24 34H4.76C2.13112 34 0 31.8689 0 29.24V4.76Z" fill="#7975B1"/>
<path d="M12.24 9.18C12.24 10.87 10.87 12.24 9.18 12.24C7.49001 12.24 6.12 10.87 6.12 9.18C6.12 7.49001 7.49001 6.12 9.18 6.12C10.87 6.12 12.24 7.49001 12.24 9.18Z" fill="white"/>
<path d="M6.8 14.28C6.8 13.9044 7.10445 13.6 7.48 13.6H10.88C11.2556 13.6 11.56 13.9044 11.56 14.28V27.2C11.56 27.5756 11.2556 27.88 10.88 27.88H7.48C7.10445 27.88 6.8 27.5756 6.8 27.2V14.28Z" fill="white"/>
<path d="M14.28 13.6L17.34 13.6C17.7156 13.6 18.02 13.9045 18.02 14.28V14.96C19.38 13.26 21.8733 13.1467 23.12 13.26C27.0064 13.6133 27.6533 17.5667 27.54 19.72L27.54 27.2C27.54 27.5756 27.2355 27.88 26.86 27.88L23.8 27.88C23.4244 27.88 23.12 27.5756 23.12 27.2V19.72C23.0067 18.8133 22.372 17 20.74 17C19.108 17 18.1333 19.04 18.02 19.72V27.2C18.02 27.5756 17.7156 27.88 17.34 27.88L14.28 27.88C13.9044 27.88 13.6 27.5756 13.6 27.2V14.28C13.6 13.9044 13.9044 13.6 14.28 13.6Z" fill="white"/>
</svg>
