<svg width="1440" height="69" viewBox="0 0 1440 69" fill="none" xmlns="http://www.w3.org/2000/svg">
<path fill-rule="evenodd" clip-rule="evenodd" d="M1440 31.4641L1392 41.9521C1344 52.4401 1248 73.4162 1152 68.1722C1056 62.9282 960 31.4641 864 31.4641C768 31.4641 672 62.9282 576 66.4242C480 69.9202 384 45.4481 288 36.7081C192 27.9681 95.9999 34.9601 47.9999 38.4561L-5.72205e-05 41.9521V-1.85889e-06H47.9999C95.9999 -1.85889e-06 192 -1.85889e-06 288 -1.85889e-06C384 -1.85889e-06 480 -1.85889e-06 576 -1.85889e-06C672 -1.85889e-06 768 -1.85889e-06 864 -1.85889e-06C960 -1.85889e-06 1056 -1.85889e-06 1152 -1.85889e-06C1248 -1.85889e-06 1344 -1.85889e-06 1392 -1.85889e-06H1440V31.4641Z" fill="#A3A3D8"/>
<path fill-rule="evenodd" clip-rule="evenodd" d="M1440 40.5549L1400.4 39.4283C1359.6 38.3018 1280.4 36.0488 1200 32.6692C1119.6 29.2896 1040.4 24.7835 960 28.1631C879.6 31.5427 800.4 42.8079 720 48.4405C639.6 54.0732 560.4 54.0732 480 50.6936C399.6 47.314 320.4 40.5549 240 37.1753C159.6 33.7957 80.3999 33.7957 39.6 33.7957H0V0H39.6C80.3999 0 159.6 0 240 0C320.4 0 399.6 0 480 0C560.4 0 639.6 0 720 0C800.4 0 879.6 0 960 0C1040.4 0 1119.6 0 1200 0C1280.4 0 1359.6 0 1400.4 0H1440V40.5549Z" fill="#C6C6EC"/>
</svg>
