<svg width="1440" height="73" viewBox="0 0 1440 73" fill="none" xmlns="http://www.w3.org/2000/svg">
<path fill-rule="evenodd" clip-rule="evenodd" d="M0 37.5359L48 27.0479C96 16.5599 192 -4.4162 288 0.827812C384 6.07183 480 37.5359 576 37.5359C672 37.5359 768 6.07183 864 2.57582C960 -0.920193 1056 23.5519 1152 32.2919C1248 41.0319 1344 34.0399 1392 30.5439L1440 27.0479V69H1392C1344 69 1248 69 1152 69C1056 69 960 69 864 69C768 69 672 69 576 69C480 69 384 69 288 69C192 69 96 69 48 69H0V37.5359Z" fill="#A3A3D8"/>
<path fill-rule="evenodd" clip-rule="evenodd" d="M0 32.4451L39.6 33.5717C80.4 34.6982 159.6 36.9512 240 40.3308C320.4 43.7104 399.6 48.2165 480 44.8369C560.4 41.4573 639.6 30.1921 720 24.5595C800.4 18.9268 879.6 18.9268 960 22.3064C1040.4 25.686 1119.6 32.4451 1200 35.8247C1280.4 39.2043 1359.6 39.2043 1400.4 39.2043H1440V73H1400.4C1359.6 73 1280.4 73 1200 73C1119.6 73 1040.4 73 960 73C879.6 73 800.4 73 720 73C639.6 73 560.4 73 480 73C399.6 73 320.4 73 240 73C159.6 73 80.4 73 39.6 73H0V32.4451Z" fill="#C6C6EC"/>
</svg>
