<svg width="39" height="27" viewBox="0 0 39 27" fill="none" xmlns="http://www.w3.org/2000/svg">
<path d="M15.6 19.2884V7.71163L25.74 13.5L15.6 19.2884Z" fill="white"/>
<path d="M38.1772 4.21531C37.9553 3.39985 37.5207 2.65635 36.917 2.05921C36.3132 1.46207 35.5615 1.03225 34.737 0.812755C31.7008 1.89332e-07 19.5 0 19.5 0C19.5 0 7.29923 1.89332e-07 4.26296 0.812755C3.43849 1.03225 2.68677 1.46207 2.08303 2.05921C1.47929 2.65635 1.04471 3.39985 0.822789 4.21531C0.255851 7.27797 -0.0192684 10.3865 0.00104798 13.5C-0.0192684 16.6135 0.255851 19.722 0.822789 22.7847C1.04471 23.6002 1.47929 24.3437 2.08303 24.9408C2.68677 25.5379 3.43849 25.9678 4.26296 26.1872C7.29923 27 19.5 27 19.5 27C19.5 27 31.7008 27 34.737 26.1872C35.5615 25.9678 36.3132 25.5379 36.917 24.9408C37.5207 24.3437 37.9553 23.6002 38.1772 22.7847C38.7441 19.722 39.0193 16.6135 38.999 13.5C39.0193 10.3865 38.7441 7.27797 38.1772 4.21531ZM15.6002 19.2857V7.71429L25.7257 13.5L15.6002 19.2857Z" fill="#7975B1"/>
</svg>
